<?xml version="1.0" standalone="no"?>
<!DOCTYPE svg PUBLIC "-//W3C//DTD SVG 20010904//EN"
 "http://www.w3.org/TR/2001/REC-SVG-20010904/DTD/svg10.dtd">
<svg version="1.0" xmlns="http://www.w3.org/2000/svg"
 width="700.000000pt" height="700.000000pt" viewBox="0 0 700.000000 700.000000"
 preserveAspectRatio="xMidYMid meet">
<metadata>
Created by potrace 1.11, written by Peter Selinger 2001-2013
</metadata>
<g transform="translate(0.000000,700.000000) scale(0.100000,-0.100000)"
fill="#000000" stroke="none">
<path d="M3427 6994 c-1 -1 -40 -4 -87 -8 -111 -9 -173 -15 -240 -26 -30 -5
-71 -12 -90 -15 -212 -34 -511 -117 -725 -200 -161 -62 -408 -183 -564 -276
-116 -68 -389 -261 -442 -311 -8 -7 -41 -35 -74 -63 -82 -68 -278 -264 -356
-355 -35 -41 -66 -77 -69 -80 -3 -3 -28 -34 -55 -70 -28 -36 -52 -67 -55 -70
-22 -22 -147 -215 -212 -325 -155 -266 -287 -590 -363 -895 -32 -129 -66 -337
-83 -510 -9 -98 -9 -504 1 -600 11 -106 36 -279 47 -320 5 -20 12 -52 14 -73
3 -21 7 -41 10 -45 3 -5 7 -19 9 -33 23 -120 111 -390 179 -544 184 -420 417
-762 732 -1078 159 -160 171 -171 313 -284 207 -165 429 -306 661 -421 146
-71 164 -79 312 -137 183 -72 481 -158 641 -185 153 -26 248 -40 309 -46 36
-3 76 -7 90 -10 13 -2 93 -6 177 -10 l153 -6 0 156 0 156 -57 1 c-125 2 -312
15 -363 24 -8 1 -40 6 -70 10 -30 4 -98 15 -150 26 -52 10 -106 20 -120 23
-92 17 -424 117 -485 146 -11 5 -65 28 -120 51 -376 156 -733 398 -1041 704
-462 461 -749 993 -873 1620 -29 149 -35 193 -48 355 -13 157 -5 550 12 603 2
6 6 36 10 66 3 30 8 64 10 75 3 12 7 32 9 46 67 394 251 833 504 1200 347 505
882 936 1447 1165 50 20 99 40 110 45 121 55 497 152 700 181 44 6 89 13 100
15 40 8 213 18 318 18 l108 1 1 -353 c0 -194 -3 -356 -7 -360 -3 -4 -30 -7
-58 -8 -77 -2 -217 -13 -257 -19 -19 -3 -48 -7 -65 -9 -354 -45 -769 -203
-1080 -411 -71 -48 -132 -90 -135 -94 -3 -3 -36 -31 -75 -62 -210 -168 -418
-411 -563 -655 -52 -87 -152 -286 -152 -300 0 -4 -7 -20 -15 -37 -44 -95 -124
-393 -140 -522 -4 -27 -9 -61 -12 -75 -12 -60 -11 -458 3 -555 22 -163 24
-176 50 -280 216 -869 897 -1554 1797 -1805 43 -12 86 -23 95 -25 157 -32 226
-44 267 -49 137 -15 176 -18 252 -20 45 -1 86 -5 90 -10 4 -4 8 -166 8 -359
l0 -352 110 1 c108 1 246 9 295 18 14 3 48 7 76 10 28 3 57 8 65 10 8 3 32 7
54 10 118 15 385 84 550 143 195 69 414 169 553 252 29 17 57 31 62 31 6 0 10
5 10 10 0 6 5 10 11 10 12 0 229 146 289 194 21 17 56 45 77 61 172 136 366
333 513 520 30 39 57 72 60 75 14 13 133 195 183 281 184 313 293 602 373 984
5 23 21 124 29 175 32 222 26 664 -11 870 -3 19 -8 46 -10 60 -54 316 -177
663 -344 970 -78 142 -255 396 -354 509 -172 196 -319 335 -496 471 -58 44
-110 84 -116 89 -6 5 -49 33 -95 63 -315 204 -653 354 -995 443 -120 31 -321
72 -399 81 -33 3 -69 8 -80 10 -43 8 -251 22 -352 23 l-62 1 -3 148 -3 147
-113 0 c-62 0 -114 0 -115 -1z m480 -1039 c37 -4 79 -8 93 -10 14 -2 45 -6 70
-10 244 -32 626 -158 840 -278 30 -17 67 -37 82 -44 26 -14 236 -152 260 -172
7 -6 40 -32 73 -59 92 -72 258 -237 347 -342 277 -329 477 -769 533 -1167 3
-21 8 -47 10 -58 8 -40 18 -223 18 -333 -3 -453 -141 -903 -396 -1285 -46 -68
-112 -159 -146 -201 -78 -95 -246 -266 -326 -332 -33 -27 -62 -51 -65 -54 -14
-14 -124 -92 -200 -142 -361 -236 -839 -393 -1260 -414 -58 -3 -122 -7 -142
-8 l-38 -3 0 2463 0 2463 89 -4 c49 -2 120 -7 158 -10z"/>
</g>
</svg>
